<svg width="35" height="69" viewBox="0 0 35 69" fill="none" xmlns="http://www.w3.org/2000/svg">
<path id="o" d="M8.51327 66.0782L8.51317 66.0783L8.52488 66.0856C11.1278 67.6992 14.1115 68.5 17.4599 68.5C20.808 68.5 23.7669 67.6992 26.3186 66.083L26.322 66.0808C28.92 64.4059 30.9333 62.0879 32.3623 59.1414C33.7923 56.1929 34.5 52.8097 34.5 49.0042V20.0894C34.5 16.2846 33.7925 12.9021 32.3632 9.95405C30.9355 6.9471 28.9223 4.62621 26.3204 3.01164C23.7691 1.3327 20.8094 0.5 17.4599 0.5C14.1083 0.5 11.1226 1.33361 8.51907 3.01164C5.96894 4.62735 3.98277 6.94929 2.5556 9.95599L2.55559 9.95598L2.55415 9.95907C1.17997 12.9059 0.5 16.2865 0.5 20.0894V49.0042C0.5 52.8071 1.17997 56.1877 2.55415 59.1345L2.5541 59.1345L2.55742 59.1414C3.9851 62.0852 5.96972 64.4027 8.51327 66.0782Z" stroke="black"/>
</svg>
